<?xml version="1.0" encoding="utf-8"?>
<!-- Generator: Adobe Illustrator 25.3.1, SVG Export Plug-In . SVG Version: 6.00 Build 0)  -->
<svg version="1.1" id="Слой_1" xmlns="http://www.w3.org/2000/svg" xmlns:xlink="http://www.w3.org/1999/xlink" x="0px" y="0px"
	 viewBox="0 0 306.3 566.9" style="enable-background:new 0 0 306.3 566.9;" xml:space="preserve">
<style type="text/css">
	.st0{fill:#F3F3F3;}
</style>
<path class="st0" d="M0.1,280.9c0.4-3,2.4-5,4.4-6.9c31.1-29.9,62.3-59.9,93.4-89.8C160.1,124.3,222.3,64.5,284.4,4.7
	c2.2-2.1,4.6-3.6,7.4-4.8c1.7,0,3.5,0,5.2,0c5.2,0.9,8.6,3.7,9.3,9.3c0,1.5,0,3.1,0,4.6c-1.5,3.8-4.4,6.4-7.3,9.1
	c-89.5,86-178.9,172.1-268.4,258.1c-2,1.9-2,2.8,0,4.8c89.9,86.4,179.8,172.8,269.7,259.3c2.6,2.5,4.9,5.1,6,8.5c0,1.5,0,3.1,0,4.6
	c-1.1,5.3-4.5,8.1-9.8,8.7c-1.5,0-3.1,0-4.6,0c-3.9-1.4-6.7-4.3-9.6-7.1C189.6,470.6,97,381.5,4.4,292.4c-2-1.9-3.8-3.8-4.2-6.7
	C-0.2,284.1-0.1,282.5,0.1,280.9z"/>
</svg>
