<?xml version="1.0" encoding="utf-8"?>
<!-- Generator: Adobe Illustrator 25.3.1, SVG Export Plug-In . SVG Version: 6.00 Build 0)  -->
<svg version="1.1" id="Слой_1" xmlns="http://www.w3.org/2000/svg" xmlns:xlink="http://www.w3.org/1999/xlink" x="0px" y="0px"
	 viewBox="0 0 306.3 566.9" style="enable-background:new 0 0 306.3 566.9;" xml:space="preserve">
<style type="text/css">
	.st0{fill:#F3F3F3;}
</style>
<path class="st0" d="M306,280.9c-0.4-3-2.4-5-4.4-6.9c-31.1-29.9-62.3-59.9-93.4-89.8C146.1,124.3,83.9,64.5,21.7,4.7
	c-2.2-2.1-4.6-3.6-7.4-4.8c-1.7,0-3.5,0-5.2,0C3.9,0.8,0.6,3.6-0.1,9.1c0,1.5,0,3.1,0,4.6c1.5,3.8,4.4,6.4,7.3,9.1
	c89.5,86,178.9,172.1,268.4,258.1c2,1.9,2,2.8,0,4.8C185.7,372.1,95.8,458.5,5.9,545c-2.6,2.5-4.9,5.1-6,8.5c0,1.5,0,3.1,0,4.6
	c1.1,5.3,4.5,8.1,9.8,8.7c1.5,0,3.1,0,4.6,0c3.9-1.4,6.7-4.3,9.6-7.1c92.6-89.1,185.2-178.2,277.8-267.3c2-1.9,3.8-3.8,4.2-6.7
	C306.3,284.1,306.3,282.5,306,280.9z"/>
</svg>
